<svg width="169" height="161" viewBox="0 0 169 161" fill="none" xmlns="http://www.w3.org/2000/svg">
<path fill-rule="evenodd" clip-rule="evenodd" d="M148.877 143.662C137.1 156.359 118.385 161.881 101.112 160.616C85.6483 159.483 74.385 146.869 62.1748 137.312C52.7275 129.918 46.6969 120.141 38.3682 111.506C25.7218 98.3946 0.048687 91.8818 0.799408 73.681C1.52706 56.0393 29.0115 54.2547 41.2544 41.532C53.3539 28.9584 54.108 2.63944 71.4018 0.311952C88.9471 -2.04939 96.4183 24.3978 112.429 31.953C128.559 39.565 152.254 29.668 163.295 43.6761C174.135 57.4291 164.552 77.578 162.052 94.9103C159.59 111.989 160.611 131.01 148.877 143.662Z" fill="#28407C"/>
</svg>
