<svg width="137" height="142" viewBox="0 0 137 142" fill="none" xmlns="http://www.w3.org/2000/svg">
<path fill-rule="evenodd" clip-rule="evenodd" d="M133.308 99.0284C127.366 111.758 114.046 118.467 101.964 125.636C89.4901 133.037 76.9159 141.74 62.4259 141.085C47.3742 140.405 33.1686 132.839 22.6508 122.051C12.4392 111.576 8.77898 97.0628 5.58917 82.7865C2.30592 68.0921 -2.17109 52.4657 4.03826 38.7489C10.2737 24.9744 24.7338 17.4717 38.2363 10.6674C51.245 4.11187 65.3086 -1.79847 79.671 0.635206C93.7149 3.01492 104.709 13.2129 114.471 23.5852C123.671 33.3593 130.326 44.8853 133.577 57.9081C136.981 71.5405 139.251 86.2962 133.308 99.0284Z" fill="#008E3F"/>
</svg>
