<svg width="164" height="152" viewBox="0 0 164 152" fill="none" xmlns="http://www.w3.org/2000/svg">
<path fill-rule="evenodd" clip-rule="evenodd" d="M0.750846 78.7219C-2.07916 61.6363 5.01292 43.4582 16.5874 30.5756C26.9502 19.0416 43.8196 17.8584 58.8513 14.0549C70.4818 11.112 81.9047 12.3295 93.8312 11.0305C111.94 9.05804 132.808 -7.25423 146.739 4.48224C160.243 15.8581 144.827 38.6823 147.392 56.1517C149.926 73.4165 170.275 90.1256 161.527 105.225C152.653 120.543 127.167 110.259 111.392 118.293C95.4975 126.387 88.8168 151.181 70.9811 151.335C53.4701 151.487 43.4057 131.574 31.2314 118.986C19.235 106.583 3.57061 95.7457 0.750846 78.7219Z" fill="#008E3F"/>
</svg>
