<svg width="12" height="13" viewBox="0 0 12 13" fill="none" xmlns="http://www.w3.org/2000/svg">
<path d="M1 6.28302L0.532879 5.39883C0.20509 5.572 0 5.9123 0 6.28302C0 6.65374 0.20509 6.99404 0.532879 7.16721L1 6.28302ZM11 1H12C12 0.649437 11.8164 0.324471 11.5162 0.143519C11.2159 -0.0374345 10.8428 -0.0479489 10.5329 0.115807L11 1ZM11 11.566L10.5329 12.4502C10.8428 12.614 11.2159 12.6035 11.5162 12.4225C11.8164 12.2416 12 11.9166 12 11.566H11ZM1.46712 7.16721L11.4671 1.88419L10.5329 0.115807L0.532879 5.39883L1.46712 7.16721ZM10 1V11.566H12V1H10ZM0.532879 7.16721L10.5329 12.4502L11.4671 10.6818L1.46712 5.39883L0.532879 7.16721Z" fill="white"/>
</svg>
