<svg width="29" height="24" viewBox="0 0 29 24" fill="none" xmlns="http://www.w3.org/2000/svg">
<path d="M2 0.5C1.17157 0.5 0.5 1.17157 0.5 2C0.5 2.82843 1.17157 3.5 2 3.5V0.5ZM27.4286 3.5C28.257 3.5 28.9286 2.82843 28.9286 2C28.9286 1.17157 28.257 0.5 27.4286 0.5V3.5ZM2 10.5C1.17157 10.5 0.5 11.1716 0.5 12C0.5 12.8284 1.17157 13.5 2 13.5V10.5ZM27.4286 13.5C28.257 13.5 28.9286 12.8284 28.9286 12C28.9286 11.1716 28.257 10.5 27.4286 10.5V13.5ZM2 20.5C1.17157 20.5 0.5 21.1716 0.5 22C0.5 22.8284 1.17157 23.5 2 23.5V20.5ZM27.4286 23.5C28.257 23.5 28.9286 22.8284 28.9286 22C28.9286 21.1716 28.257 20.5 27.4286 20.5V23.5ZM2 3.5H27.4286V0.5H2V3.5ZM2 13.5H27.4286V10.5H2V13.5ZM2 23.5H27.4286V20.5H2V23.5Z" fill="white"/>
</svg>
