<svg width="47" height="47" viewBox="0 0 47 47" fill="none" xmlns="http://www.w3.org/2000/svg">
<rect width="46.0465" height="46.0465" rx="11.5116" fill="#9BAACF"/>
<path d="M8.05817 22.2174C7.61313 22.2174 7.25235 22.5782 7.25235 23.0232C7.25235 23.4683 7.61313 23.8291 8.05817 23.8291V22.2174ZM12.6628 23.8291C13.1079 23.8291 13.4686 23.4683 13.4686 23.0232C13.4686 22.5782 13.1079 22.2174 12.6628 22.2174V23.8291ZM33.3837 22.2174C32.9387 22.2174 32.5779 22.5782 32.5779 23.0232C32.5779 23.4683 32.9387 23.8291 33.3837 23.8291V22.2174ZM37.9884 23.8291C38.4334 23.8291 38.7942 23.4683 38.7942 23.0232C38.7942 22.5782 38.4334 22.2174 37.9884 22.2174V23.8291ZM33.9535 13.2326C34.2682 12.9179 34.2682 12.4077 33.9535 12.093C33.6389 11.7783 33.1286 11.7783 32.8139 12.093L33.9535 13.2326ZM30.5116 14.3953C30.1969 14.71 30.1969 15.2202 30.5116 15.5349C30.8263 15.8496 31.3365 15.8496 31.6512 15.5349L30.5116 14.3953ZM23.8291 9.20929C23.8291 8.76425 23.4683 8.40348 23.0233 8.40348C22.5782 8.40348 22.2175 8.76425 22.2175 9.20929H23.8291ZM22.2175 12.6628C22.2175 13.1078 22.5782 13.4686 23.0233 13.4686C23.4683 13.4686 23.8291 13.1078 23.8291 12.6628H22.2175ZM13.2326 12.093C12.9179 11.7783 12.4077 11.7783 12.093 12.093C11.7783 12.4077 11.7783 12.9179 12.093 13.2326L13.2326 12.093ZM14.3953 15.5349C14.71 15.8496 15.2202 15.8496 15.5349 15.5349C15.8496 15.2202 15.8496 14.71 15.5349 14.3953L14.3953 15.5349ZM32.8139 33.9535C33.1286 34.2682 33.6389 34.2682 33.9535 33.9535C34.2682 33.6388 34.2682 33.1286 33.9535 32.8139L32.8139 33.9535ZM31.6512 30.5116C31.3365 30.1969 30.8263 30.1969 30.5116 30.5116C30.1969 30.8263 30.1969 31.3365 30.5116 31.6512L31.6512 30.5116ZM12.093 32.8139C11.7783 33.1286 11.7783 33.6388 12.093 33.9535C12.4077 34.2682 12.9179 34.2682 13.2326 33.9535L12.093 32.8139ZM15.5349 31.6512C15.8496 31.3365 15.8496 30.8263 15.5349 30.5116C15.2202 30.1969 14.71 30.1969 14.3953 30.5116L15.5349 31.6512ZM23.8291 34.5349C23.8291 34.0898 23.4683 33.7291 23.0233 33.7291C22.5782 33.7291 22.2175 34.0898 22.2175 34.5349H23.8291ZM22.2175 37.9884C22.2175 38.4334 22.5782 38.7942 23.0233 38.7942C23.4683 38.7942 23.8291 38.4334 23.8291 37.9884H22.2175ZM8.05817 23.8291H12.6628V22.2174H8.05817V23.8291ZM33.3837 23.8291H37.9884V22.2174H33.3837V23.8291ZM32.8139 12.093L30.5116 14.3953L31.6512 15.5349L33.9535 13.2326L32.8139 12.093ZM22.2175 9.20929V12.6628H23.8291V9.20929H22.2175ZM12.093 13.2326L14.3953 15.5349L15.5349 14.3953L13.2326 12.093L12.093 13.2326ZM33.9535 32.8139L31.6512 30.5116L30.5116 31.6512L32.8139 33.9535L33.9535 32.8139ZM13.2326 33.9535L15.5349 31.6512L14.3953 30.5116L12.093 32.8139L13.2326 33.9535ZM22.2175 34.5349V37.9884H23.8291V34.5349H22.2175Z" fill="#DDDDDD"/>
<path d="M29.9302 23.0232C29.9302 26.8379 26.8379 29.9302 23.0232 29.9302C19.2086 29.9302 16.1163 26.8379 16.1163 23.0232C16.1163 19.2086 19.2086 16.1163 23.0232 16.1163C26.8379 16.1163 29.9302 19.2086 29.9302 23.0232Z" fill="#DDDDDD"/>
</svg>
