<svg width="48" height="47" viewBox="0 0 48 47" fill="none" xmlns="http://www.w3.org/2000/svg">
<rect x="0.976685" width="46.0465" height="46.0465" rx="11.5116" fill="#9BAACF"/>
<path d="M37.8139 23.0232C37.8139 30.6525 31.6292 36.8372 24 36.8372C16.3708 36.8372 10.186 30.6525 10.186 23.0232C10.186 15.394 16.3708 9.20929 24 9.20929C31.6292 9.20929 37.8139 15.394 37.8139 23.0232Z" fill="#FFFFFF"/>
<path d="M37.8139 25.3256C37.4354 27.5966 36.6628 31.0814 31.7146 34.5029C31.4564 34.5239 31.1873 34.5348 30.907 34.5348C23.2777 34.5348 17.093 28.35 17.093 20.7208C17.093 15.9159 19.5462 11.684 23.2683 9.20923C28.6046 9.2093 30.6355 10.9245 30.907 11.0512C34.3605 12.6628 38.9651 18.4186 37.8139 25.3256Z" fill="#465E98"/>
</svg>
