<svg width="47" height="47" viewBox="0 0 47 47" fill="none" xmlns="http://www.w3.org/2000/svg">
<rect x="0.953491" width="46.0465" height="46.0465" rx="11.5116" fill="#9BAACF"/>
<path d="M37.7907 23.0232C37.7907 30.6525 31.606 36.8372 23.9767 36.8372C16.3475 36.8372 10.1628 30.6525 10.1628 23.0232C10.1628 15.394 16.3475 9.20929 23.9767 9.20929C31.606 9.20929 37.7907 15.394 37.7907 23.0232Z" fill="#DDDDDD"/>
<path d="M34.3372 23.0232C34.3372 28.7442 31.0961 32.5583 25.8145 33.2649C24.8062 33.3998 23.9767 32.56 23.9767 31.5428C23.9767 29.7767 23.9767 26.8199 23.9767 23.0232C23.9767 19.2266 23.9767 16.2698 23.9767 14.5037C23.9767 13.4865 24.8062 12.6467 25.8145 12.7816C31.0961 13.4882 34.3372 17.3023 34.3372 23.0232Z" fill="#465E98"/>
</svg>
