<svg width="37" height="31" viewBox="0 0 37 31" fill="none" xmlns="http://www.w3.org/2000/svg">
<path d="M33.0154 8.1875C34.4216 7.13281 35.6873 5.86719 36.6716 4.39062C35.406 4.95312 33.9294 5.375 32.4529 5.51562C33.9998 4.60156 35.1248 3.19531 35.6873 1.4375C34.281 2.28125 32.6638 2.91406 31.0466 3.26562C29.6404 1.78906 27.7419 0.945312 25.6326 0.945312C21.5544 0.945312 18.2498 4.25 18.2498 8.32812C18.2498 8.89062 18.3201 9.45312 18.4607 10.0156C12.3435 9.66406 6.85913 6.71094 3.20288 2.28125C2.57007 3.33594 2.21851 4.60156 2.21851 6.00781C2.21851 8.53906 3.48413 10.7891 5.52319 12.125C4.32788 12.0547 3.13257 11.7734 2.14819 11.2109V11.2812C2.14819 14.8672 4.67944 17.8203 8.05444 18.5234C7.49194 18.6641 6.78882 18.8047 6.15601 18.8047C5.66382 18.8047 5.24194 18.7344 4.74976 18.6641C5.66382 21.6172 8.40601 23.7266 11.6404 23.7969C9.10913 25.7656 5.94507 26.9609 2.49976 26.9609C1.86694 26.9609 1.30444 26.8906 0.741943 26.8203C3.97632 28.9297 7.84351 30.125 12.0623 30.125C25.6326 30.125 33.0154 18.9453 33.0154 9.17188C33.0154 8.82031 33.0154 8.53906 33.0154 8.1875Z" fill="#F0F0F0"/>
</svg>
